<svg xmlns="http://www.w3.org/2000/svg" width="30" height="30" fill="black" viewBox="0 0 24 24">
  <path d="M12 0C5.37 0 0 5.37 0 12c0 5.3 3.438 9.8 8.205 11.385.6.113.82-.258.82-.577 
  0-.285-.01-1.04-.015-2.04-3.338.724-4.042-1.61-4.042-1.61-.546-1.385-1.333-1.753-1.333-1.753
  -1.09-.745.083-.729.083-.729 1.205.084 1.838 1.236 1.838 1.236 1.07 1.835 2.807 1.305 3.492.998
  .108-.775.418-1.305.76-1.605-2.665-.3-5.466-1.333-5.466-5.93 
  0-1.31.468-2.38 1.235-3.22-.123-.303-.535-1.524.117-3.176 0 0 1.008-.322 3.3 1.23
  .96-.267 1.98-.399 3-.405 1.02.006 2.04.138 3 .405 2.28-1.552 3.285-1.23 3.285-1.23
  .653 1.653.241 2.874.118 3.176.77.84 1.233 1.91 1.233 3.22 
  0 4.61-2.804 5.625-5.475 5.92.43.372.823 1.102.823 2.222 
  0 1.606-.015 2.896-.015 3.286 0 .322.216.694.825.576C20.565 21.795 24 17.297 24 12
  24 5.37 18.63 0 12 0z"/>
</svg>