<svg xmlns="http://www.w3.org/2000/svg" width="30" height="30" fill="black" viewBox="0 0 24 24">
  <path d="M7.75 2C4.574 2 2 4.574 2 7.75v8.5C2 19.426 4.574 22 7.75 22h8.5
  C19.426 22 22 19.426 22 16.25v-8.5C22 4.574 19.426 2 16.25 2h-8.5zm0 2h8.5
  C18.544 4 20 5.456 20 7.75v8.5c0 2.294-1.456 3.75-3.75 3.75h-8.5
  C5.456 20 4 18.544 4 16.25v-8.5C4 5.456 5.456 4 7.75 4zm4.25 2.5
  a5.75 5.75 0 100 11.5 5.75 5.75 0 000-11.5zm0 2
  a3.75 3.75 0 110 7.5 3.75 3.75 0 010-7.5zm5.25-.88
  a1.13 1.13 0 100 2.26 1.13 1.13 0 000-2.26z"/>
</svg>